# xmcd
# Track frame offsets:
# 150
# 13499
# 29913
# 42217
# 54629
# 67531
# 84003
# 96640
# 111068
# 126019
# 141252
# 152711
#
# Disc length: 2210 seconds
# Revision: 0
# Processed by: cddbd v1.4PL0 Copyright (c) Steve Scherf et al.
# Submitted via: VisiTrax 2.9.5.180 - For more info visit www.synapsa.com
#
DISCID=a008a00c
DTITLE=Joe Paul Nichols - Route 3 Gloryland
DYEAR=2000
DGENRE=
TTITLE0=The father's son
TTITLE1=Route 3 gloryland
TTITLE2=Crying in the chapel
TTITLE3=The miracle
TTITLE4=Downhome upbringing
TTITLE5=Working like the devil for the Lord
TTITLE6=This world is not my home
TTITLE7=Take over Lord
TTITLE8=Jesus is the same in California
TTITLE9=The two sides of life
TTITLE10=Just over in gloryland
TTITLE11=An evening prayer
EXTD=
EXTT0=
EXTT1=
EXTT2=
EXTT3=
EXTT4=
EXTT5=
EXTT6=
EXTT7=
EXTT8=
EXTT9=
EXTT10=
EXTT11=
PLAYORDER=
